HIERARCHY
ROOT joint_Root
{
	OFFSET 0.0 0.0 0.0
	CHANNELS 6 Xposition Yposition Zposition Zrotation Xrotation Yrotation 
	JOINT Hips
	{
		OFFSET 4.5925 91.4895 -427.239
		CHANNELS 6 Xposition Yposition Zposition Zrotation Xrotation Yrotation 
		JOINT Spine
		{
			OFFSET 15.7357 0.0 0.0
			CHANNELS 6 Xposition Yposition Zposition Zrotation Xrotation Yrotation 
			JOINT Chest
			{
				OFFSET 8.98455 -0.406207 0.0
				CHANNELS 6 Xposition Yposition Zposition Zrotation Xrotation Yrotation 
				JOINT Neck
				{
					OFFSET 16.3773 0.0 0.0
					CHANNELS 6 Xposition Yposition Zposition Zrotation Xrotation Yrotation 
					JOINT Head
					{
						OFFSET 6.45672 0.0 0.0
						CHANNELS 6 Xposition Yposition Zposition Zrotation Xrotation Yrotation 
						End Site
						{
							OFFSET 0.0 0.0 0.0
						}
					}
				}
				JOINT Shoulder_L
				{
					OFFSET 12.9942 -0.242716 4.98039
					CHANNELS 6 Xposition Yposition Zposition Zrotation Xrotation Yrotation 
					JOINT UpperArm_L
					{
						OFFSET 5.34809 0.0 0.0
						CHANNELS 6 Xposition Yposition Zposition Zrotation Xrotation Yrotation 
						JOINT LowerArm_L
						{
							OFFSET 24.3286 1.87007e-05 0.0
							CHANNELS 6 Xposition Yposition Zposition Zrotation Xrotation Yrotation 
							JOINT Hand_L
							{
								OFFSET 22.2916 0.0 0.0
								CHANNELS 6 Xposition Yposition Zposition Zrotation Xrotation Yrotation 
								End Site
								{
									OFFSET 0.0 0.0 0.0
								}
							}
						}
					}
				}
				JOINT Shoulder_R
				{
					OFFSET 12.9945 -0.242716 -4.98039
					CHANNELS 6 Xposition Yposition Zposition Zrotation Xrotation Yrotation 
					JOINT UpperArm_R
					{
						OFFSET -5.34813 0.0 0.0
						CHANNELS 6 Xposition Yposition Zposition Zrotation Xrotation Yrotation 
						JOINT LowerArm_R
						{
							OFFSET -24.3289 0.000322201 0.0
							CHANNELS 6 Xposition Yposition Zposition Zrotation Xrotation Yrotation 
							JOINT Hand_R
							{
								OFFSET -22.2915 -0.000108084 0.0
								CHANNELS 6 Xposition Yposition Zposition Zrotation Xrotation Yrotation 
								End Site
								{
									OFFSET 0.0 0.0 0.0
								}
							}
						}
					}
				}
			}
		}
		JOINT UpperLeg_L
		{
			OFFSET -2.19248 -6.46944 0.0
			CHANNELS 6 Xposition Yposition Zposition Zrotation Xrotation Yrotation 
			JOINT LowerLeg_L
			{
				OFFSET 39.0811 0.0 -1.23785e-05
				CHANNELS 6 Xposition Yposition Zposition Zrotation Xrotation Yrotation 
				JOINT Foot_L
				{
					OFFSET 40.9854 0.0 -1.26872e-05
					CHANNELS 6 Xposition Yposition Zposition Zrotation Xrotation Yrotation 
					JOINT Toes_L
					{
						OFFSET 11.7543 0.0 0.0
						CHANNELS 6 Xposition Yposition Zposition Zrotation Xrotation Yrotation 
						End Site
						{
							OFFSET 0.0 0.0 0.0
						}
					}
				}
			}
		}
		JOINT UpperLeg_R
		{
			OFFSET -2.19251 6.46944 0.0
			CHANNELS 6 Xposition Yposition Zposition Zrotation Xrotation Yrotation 
			JOINT LowerLeg_R
			{
				OFFSET -39.0811 -0.00228153 -0.0401928
				CHANNELS 6 Xposition Yposition Zposition Zrotation Xrotation Yrotation 
				JOINT Foot_R
				{
					OFFSET -40.9854 0.0 0.0
					CHANNELS 6 Xposition Yposition Zposition Zrotation Xrotation Yrotation 
					JOINT Toes_R
					{
						OFFSET -11.7543 0.0 0.0
						CHANNELS 6 Xposition Yposition Zposition Zrotation Xrotation Yrotation 
						End Site
						{
							OFFSET 0.0 0.0 0.0
						}
					}
				}
			}
		}
	}
}
MOTION
Frames:	4
Frame Time:	0.0333333
0.000000 0.000000 0.000000 0.000000 0.000000 -0.000000 -1.097930 85.660300 1.647870 88.236500 -11.384000 12.460200 15.735700 0.000005 -0.000001 83.147900 80.709400 -82.434900 8.984550 -0.406207 -0.000000 10.702300 -2.182910 1.629800 16.377300 -0.000001 -0.000001 -1.549740 -0.707223 2.056800 6.456720 -0.000001 -0.000000 -2.908130 4.367130 -5.859980 12.994200 -0.242716 4.980390 -91.626500 5.731320 -74.127800 5.348090 -0.000007 -0.000001 -60.183600 37.920000 -12.394300 24.328600 0.000019 0.000005 7.717890 14.691300 -28.121100 22.291600 -0.000001 0.000005 10.364800 5.289710 0.359310 12.994500 -0.242716 -4.980390 87.602400 12.009200 -78.622000 -5.348130 -0.000001 -0.000004 -60.656600 21.537700 -13.889500 -24.328900 0.000322 -0.000009 -2.316650 -8.649860 -15.039100 -22.291500 -0.000108 -0.000004 6.500340 5.397880 -2.812740 -2.192480 -6.469440 -0.000000 -171.116000 -14.951000 -4.643270 39.081100 -0.000007 -0.000012 -0.433620 0.352048 50.928500 40.985400 -0.000006 -0.000013 -1.366550 2.107450 -82.506200 11.754300 -0.000000 0.000003 -0.000228 -0.002067 -16.655200 -2.192510 6.469440 -0.000001 178.681000 5.831540 172.987000 -39.081100 -0.002282 -0.040193 0.041508 -0.030564 51.385200 -40.985400 0.000008 0.000006 8.030960 7.102830 -81.704100 -11.754300 -0.000006 -0.000006 -0.260560 -0.328969 -17.571400
0.000000 0.000000 0.000000 0.000000 0.000000 -0.000000 -1.451440 86.654400 2.139620 88.394900 -10.551400 11.918000 15.735700 0.000005 -0.000001 82.584100 81.683600 -82.847000 8.984550 -0.406207 -0.000000 8.727360 -2.138340 -0.362121 16.377300 -0.000001 -0.000001 -0.558755 -0.010487 1.470190 6.456720 -0.000001 -0.000000 -1.597690 4.554100 -5.390620 12.994200 -0.242716 4.980390 -91.724300 5.778080 -73.352700 5.348090 -0.000007 -0.000001 -59.941000 36.104800 -12.170700 24.328600 0.000019 0.000005 8.228340 17.427900 -25.773700 22.291600 -0.000001 0.000005 9.778190 5.245830 1.543190 12.994500 -0.242716 -4.980390 87.701500 10.955600 -78.073900 -5.348130 -0.000001 -0.000004 -58.862100 15.683100 -13.777800 -24.328900 0.000322 -0.000009 -0.480424 -3.627200 -7.451010 -22.291500 -0.000108 -0.000004 -3.113610 5.327050 -0.645375 -2.192480 -6.469440 -0.000000 -171.243000 -14.614800 -3.210150 39.081100 -0.000007 -0.000012 -0.384424 0.355081 47.273100 40.985400 -0.000006 -0.000013 -1.482410 2.575020 -80.879900 11.754300 -0.000000 0.000003 -0.000230 -0.002081 -16.655700 -2.192510 6.469440 -0.000001 178.510000 6.803790 174.566000 -39.081100 -0.002282 -0.040193 0.041181 -0.034166 47.985600 -40.985400 0.000008 0.000006 8.055480 7.402040 -80.251000 -11.754300 -0.000006 -0.000006 -0.351109 -0.437679 -17.719900
0.000000 0.000000 0.000000 0.000000 0.000000 -0.000000 -1.690510 88.217400 2.601570 88.599000 -9.405570 10.198200 15.735700 0.000005 -0.000001 80.254100 83.229900 -81.747800 8.984550 -0.406207 -0.000000 5.554410 -2.257830 -2.874550 16.377300 -0.000001 -0.000001 1.073310 0.880720 0.990365 6.456720 -0.000001 -0.000000 -0.132971 4.622460 -4.065320 12.994200 -0.242716 4.980390 -91.723500 5.392820 -72.245800 5.348090 -0.000007 -0.000001 -60.736000 32.629400 -10.527100 24.328600 0.000019 0.000005 8.088690 18.633500 -23.979500 22.291600 -0.000001 0.000005 10.047300 5.210060 2.464520 12.994500 -0.242716 -4.980390 88.032100 8.924340 -77.510100 -5.348130 -0.000001 -0.000004 -55.869300 0.209630 -15.348800 -24.328900 0.000322 -0.000009 -0.004667 2.846020 0.000005 -22.291500 -0.000108 -0.000004 -7.179870 5.182820 3.137290 -2.192480 -6.469440 -0.000000 -172.020000 -13.872200 -1.943950 39.081100 -0.000007 -0.000012 -0.313673 0.358719 41.167900 40.985400 -0.000006 -0.000013 -1.679580 2.675060 -77.959300 11.754300 -0.000000 0.000003 -0.000185 -0.001736 -16.643200 -2.192510 6.469440 -0.000001 178.137000 8.672020 176.044000 -39.081100 -0.002282 -0.040193 0.037196 -0.037288 42.295500 -40.985400 0.000008 0.000006 8.018820 8.550030 -77.501700 -11.754300 -0.000006 -0.000006 -0.374882 -0.468124 -18.058600
0.000000 0.000000 0.000000 0.000000 0.000000 -0.000000 -1.836220 89.668100 2.914220 88.362600 -8.134910 7.665610 15.735700 0.000005 -0.000001 74.903400 84.949600 -77.425200 8.984550 -0.406207 -0.000000 1.938090 -2.500900 -4.996820 16.377300 -0.000001 -0.000001 2.785220 1.563810 0.673398 6.456720 -0.000001 -0.000000 1.222190 4.543530 -2.846720 12.994200 -0.242716 4.980390 -91.538100 4.457560 -70.939700 5.348090 -0.000007 -0.000001 -62.105600 28.193700 -8.238570 24.328600 0.000019 0.000005 7.510190 17.770200 -23.362300 22.291600 -0.000001 0.000005 9.645680 5.215720 2.321610 12.994500 -0.242716 -4.980390 88.489800 6.603380 -77.086800 -5.348130 -0.000001 -0.000004 -49.597500 -16.545000 -18.827900 -24.328900 0.000322 -0.000009 -0.001055 6.079300 0.000021 -22.291500 -0.000108 -0.000004 -3.334540 5.066560 5.859990 -2.192480 -6.469440 -0.000000 -172.414000 -13.540500 -1.488460 39.081100 -0.000007 -0.000012 -0.238491 0.341193 34.953600 40.985400 -0.000006 -0.000013 -1.670790 3.269320 -74.851200 11.754300 -0.000000 0.000003 -0.000113 -0.001144 -16.621300 -2.192510 6.469440 -0.000001 178.257000 11.274100 176.780000 -39.081100 -0.002282 -0.040193 0.030058 -0.036443 36.300300 -40.985400 0.000008 0.000006 7.822910 10.287900 -74.241500 -11.754300 -0.000006 -0.000006 -0.475854 -0.588066 -18.555700
